<svg xmlns="http://www.w3.org/2000/svg" width="30" height="30" viewBox="0 0 30 30">
  <g id="google" transform="translate(-4 -4)">
    <path id="Path_1" data-name="Path 1" d="M33.708,16.062H32.5V16H19v6h8.477a9.007,9.007,0,1,1-2.507-9.721l4.243-4.243A14.985,14.985,0,1,0,34,19,15.1,15.1,0,0,0,33.708,16.062Z" fill="#ffc107"/>
    <path id="Path_2" data-name="Path 2" d="M6.306,12.018l4.928,3.614a8.982,8.982,0,0,1,14.313-3.353L29.79,8.036A14.971,14.971,0,0,0,6.306,12.018Z" transform="translate(-0.577)" fill="#ff3d00"/>
    <path id="Path_3" data-name="Path 3" d="M19.549,40.014A14.93,14.93,0,0,0,29.605,36.12l-4.643-3.929a8.977,8.977,0,0,1-13.876-4.137L6.2,31.823A14.988,14.988,0,0,0,19.549,40.014Z" transform="translate(-0.549 -6.013)" fill="#4caf50"/>
    <path id="Path_4" data-name="Path 4" d="M38.708,20.062H37.5V20H24v6h8.477a9.03,9.03,0,0,1-3.065,4.178l0,0,4.642,3.929A14.51,14.51,0,0,0,39,23,15.1,15.1,0,0,0,38.708,20.062Z" transform="translate(-5 -4)" fill="#1976d2"/>
  </g>
</svg>
