<svg id="Bank" xmlns="http://www.w3.org/2000/svg" width="24" height="24" viewBox="0 0 24 24">
  <g id="bank-2" data-name="bank">
    <path id="Vector" d="M10.37.06l9,3.6a1.083,1.083,0,0,1,.63.93V7.91a1,1,0,0,1-1,1H1a1,1,0,0,1-1-1V4.59a1.083,1.083,0,0,1,.63-.93l9-3.6A1.171,1.171,0,0,1,10.37.06Z" transform="translate(2 2.09)" fill="none" stroke="#b9c8c1" stroke-linecap="round" stroke-linejoin="round" stroke-width="1.5"/>
    <path id="Vector-2" data-name="Vector" d="M20,4H0V1A1,1,0,0,1,1,0H19a1,1,0,0,1,1,1Z" transform="translate(2 18)" fill="none" stroke="#b9c8c1" stroke-linecap="round" stroke-linejoin="round" stroke-width="1.5"/>
    <path id="Vector-3" data-name="Vector" d="M0,7V0" transform="translate(4 11)" fill="none" stroke="#b9c8c1" stroke-linecap="round" stroke-linejoin="round" stroke-width="1.5"/>
    <path id="Vector-4" data-name="Vector" d="M0,7V0" transform="translate(8 11)" fill="none" stroke="#b9c8c1" stroke-linecap="round" stroke-linejoin="round" stroke-width="1.5"/>
    <path id="Vector-5" data-name="Vector" d="M0,7V0" transform="translate(12 11)" fill="none" stroke="#b9c8c1" stroke-linecap="round" stroke-linejoin="round" stroke-width="1.5"/>
    <path id="Vector-6" data-name="Vector" d="M0,7V0" transform="translate(16 11)" fill="none" stroke="#b9c8c1" stroke-linecap="round" stroke-linejoin="round" stroke-width="1.5"/>
    <path id="Vector-7" data-name="Vector" d="M0,7V0" transform="translate(20 11)" fill="none" stroke="#b9c8c1" stroke-linecap="round" stroke-linejoin="round" stroke-width="1.5"/>
    <path id="Vector-8" data-name="Vector" d="M0,0H22" transform="translate(1 22)" fill="none" stroke="#b9c8c1" stroke-linecap="round" stroke-linejoin="round" stroke-width="1.5"/>
    <path id="Vector-9" data-name="Vector" d="M3,1.5A1.5,1.5,0,1,1,1.5,0,1.5,1.5,0,0,1,3,1.5Z" transform="translate(10.5 5.5)" fill="none" stroke="#b9c8c1" stroke-linecap="round" stroke-linejoin="round" stroke-width="1.5"/>
    <path id="Vector-10" data-name="Vector" d="M0,0H24V24H0Z" fill="none" opacity="0"/>
  </g>
</svg>
