<svg xmlns="http://www.w3.org/2000/svg" width="24" height="24" viewBox="0 0 24 24">
  <g id="No_OTP" data-name="No OTP" transform="translate(-236 -314)">
    <g id="message-remove">
      <path id="Vector" d="M20,5v6a5,5,0,0,1-1.38,3.63A5,5,0,0,1,15,16v2.13a1,1,0,0,1-1.55.84L9,16H6.88A3.594,3.594,0,0,0,7,15.07,3.984,3.984,0,0,0,5.97,12.4,3.944,3.944,0,0,0,3,11.07,4,4,0,0,0,.13,12.28,5.848,5.848,0,0,1,0,11V5A4.724,4.724,0,0,1,5,0H15A4.724,4.724,0,0,1,20,5Z" transform="translate(238 316.43)" fill="none" stroke="#fff" stroke-linecap="round" stroke-linejoin="round" stroke-width="1.5"/>
      <path id="Vector-2" data-name="Vector" d="M8,4a3.594,3.594,0,0,1-.12.93,3.734,3.734,0,0,1-.46,1.13A3.97,3.97,0,0,1,4,8,3.921,3.921,0,0,1,1.34,6.97a3.684,3.684,0,0,1-.76-.91A3.921,3.921,0,0,1,0,4,3.994,3.994,0,0,1,4,0,3.944,3.944,0,0,1,6.97,1.33,3.984,3.984,0,0,1,8,4Z" transform="translate(237 327.5)" fill="none" stroke="#fff" stroke-linecap="round" stroke-linejoin="round" stroke-width="1.5"/>
      <g id="Group">
        <path id="Vector-3" data-name="Vector" d="M2.12,2.11,0,0" transform="translate(239.95 330.43)" fill="none" stroke="#df6c54" stroke-linecap="round" stroke-linejoin="round" stroke-width="1.5"/>
        <path id="Vector-4" data-name="Vector" d="M2.12,0,0,2.11" transform="translate(239.93 330.46)" fill="none" stroke="#df6c54" stroke-linecap="round" stroke-linejoin="round" stroke-width="1.5"/>
      </g>
      <path id="Vector-5" data-name="Vector" d="M0,0H24V24H0Z" transform="translate(236 314)" fill="none" opacity="0"/>
      <path id="Path_5" data-name="Path 5" d="M4.27-2.182a2.616,2.616,0,0,1-.256,1.2,1.87,1.87,0,0,1-.7.771A1.906,1.906,0,0,1,2.305.06,1.91,1.91,0,0,1,1.294-.21a1.869,1.869,0,0,1-.7-.772,2.618,2.618,0,0,1-.256-1.2,2.616,2.616,0,0,1,.256-1.2,1.87,1.87,0,0,1,.7-.771,1.91,1.91,0,0,1,1.011-.27,1.906,1.906,0,0,1,1.009.27,1.87,1.87,0,0,1,.7.771A2.616,2.616,0,0,1,4.27-2.182Zm-.652,0a2.106,2.106,0,0,0-.172-.9,1.277,1.277,0,0,0-.469-.554,1.228,1.228,0,0,0-.672-.189,1.227,1.227,0,0,0-.673.189,1.28,1.28,0,0,0-.468.554,2.106,2.106,0,0,0-.172.9,2.106,2.106,0,0,0,.172.9,1.28,1.28,0,0,0,.468.554,1.227,1.227,0,0,0,.673.189A1.228,1.228,0,0,0,2.978-.73a1.277,1.277,0,0,0,.469-.554A2.106,2.106,0,0,0,3.618-2.182ZM4.692-3.8l0-.565H8.065l0,.567-1.362,0V0H6.051l0-3.8ZM8.81,0V-4.364h1.555a1.725,1.725,0,0,1,.844.185,1.206,1.206,0,0,1,.5.506,1.544,1.544,0,0,1,.166.721,1.541,1.541,0,0,1-.167.723,1.218,1.218,0,0,1-.5.507,1.718,1.718,0,0,1-.843.186H9.294v-.558H10.3a1.066,1.066,0,0,0,.522-.112.69.69,0,0,0,.294-.306,1,1,0,0,0,.094-.441.987.987,0,0,0-.094-.439.673.673,0,0,0-.3-.3A1.114,1.114,0,0,0,10.3-3.8H9.469V0Z" transform="translate(242 325)" fill="#fff"/>
    </g>
  </g>
</svg>
