<svg xmlns="http://www.w3.org/2000/svg" width="24" height="24" viewBox="0 0 24 24">
  <g id="No_personal_SMS" data-name="No personal SMS" transform="translate(-236 -314)">
    <g id="message-remove">
      <path id="Vector" d="M20,5v6a5,5,0,0,1-1.38,3.63A5,5,0,0,1,15,16v2.13a1,1,0,0,1-1.55.84L9,16H6.88A3.594,3.594,0,0,0,7,15.07,3.984,3.984,0,0,0,5.97,12.4,3.944,3.944,0,0,0,3,11.07,4,4,0,0,0,.13,12.28,5.848,5.848,0,0,1,0,11V5A4.724,4.724,0,0,1,5,0H15A4.724,4.724,0,0,1,20,5Z" transform="translate(238 316.43)" fill="none" stroke="#fff" stroke-linecap="round" stroke-linejoin="round" stroke-width="1.5"/>
      <path id="Vector-2" data-name="Vector" d="M8,4a3.594,3.594,0,0,1-.12.93,3.734,3.734,0,0,1-.46,1.13A3.97,3.97,0,0,1,4,8,3.921,3.921,0,0,1,1.34,6.97a3.684,3.684,0,0,1-.76-.91A3.921,3.921,0,0,1,0,4,3.994,3.994,0,0,1,4,0,3.944,3.944,0,0,1,6.97,1.33,3.984,3.984,0,0,1,8,4Z" transform="translate(237 327.5)" fill="none" stroke="#fff" stroke-linecap="round" stroke-linejoin="round" stroke-width="1.5"/>
      <g id="Group">
        <path id="Vector-3" data-name="Vector" d="M2.12,2.11,0,0" transform="translate(239.95 330.43)" fill="none" stroke="#df6c54" stroke-linecap="round" stroke-linejoin="round" stroke-width="1.5"/>
        <path id="Vector-4" data-name="Vector" d="M2.12,0,0,2.11" transform="translate(239.93 330.46)" fill="none" stroke="#df6c54" stroke-linecap="round" stroke-linejoin="round" stroke-width="1.5"/>
      </g>
      <path id="Vector-5" data-name="Vector" d="M0,0H24V24H0Z" transform="translate(236 314)" fill="none" opacity="0"/>
      <path id="Path_6" data-name="Path 6" d="M2.859-3.217a.626.626,0,0,0-.281-.47,1.086,1.086,0,0,0-.622-.167,1.172,1.172,0,0,0-.464.084.718.718,0,0,0-.3.23.544.544,0,0,0-.108.331.481.481,0,0,0,.074.268.623.623,0,0,0,.194.189,1.343,1.343,0,0,0,.259.126,2.74,2.74,0,0,0,.266.082l.426.111a3.25,3.25,0,0,1,.428.138,1.717,1.717,0,0,1,.407.23,1.114,1.114,0,0,1,.3.354,1.032,1.032,0,0,1,.116.5,1.164,1.164,0,0,1-.191.658,1.287,1.287,0,0,1-.552.454,2.077,2.077,0,0,1-.873.166,2.117,2.117,0,0,1-.848-.156,1.3,1.3,0,0,1-.56-.442,1.273,1.273,0,0,1-.224-.681H.967a.666.666,0,0,0,.154.393.807.807,0,0,0,.347.232A1.377,1.377,0,0,0,1.935-.5a1.317,1.317,0,0,0,.5-.088.82.82,0,0,0,.344-.247A.581.581,0,0,0,2.9-1.212a.46.46,0,0,0-.11-.317.831.831,0,0,0-.3-.2,2.94,2.94,0,0,0-.421-.143L1.56-2.018a2,2,0,0,1-.83-.42A.941.941,0,0,1,.424-3.17a1.089,1.089,0,0,1,.2-.658,1.351,1.351,0,0,1,.554-.438,1.908,1.908,0,0,1,.788-.157,1.863,1.863,0,0,1,.783.156,1.323,1.323,0,0,1,.536.427,1.085,1.085,0,0,1,.2.623ZM4.34-4.364h.8L6.528-.972H6.58L7.969-4.364h.8V0H8.141V-3.158H8.1L6.814-.006h-.52L5.007-3.16h-.04V0H4.34Zm7.766,1.146a.626.626,0,0,0-.281-.47,1.086,1.086,0,0,0-.622-.167,1.172,1.172,0,0,0-.464.084.718.718,0,0,0-.3.23.544.544,0,0,0-.108.331.481.481,0,0,0,.074.268.623.623,0,0,0,.194.189,1.343,1.343,0,0,0,.259.126,2.74,2.74,0,0,0,.266.082l.426.111a3.25,3.25,0,0,1,.428.138,1.717,1.717,0,0,1,.407.23,1.114,1.114,0,0,1,.3.354,1.032,1.032,0,0,1,.116.5,1.164,1.164,0,0,1-.191.658,1.287,1.287,0,0,1-.552.454,2.077,2.077,0,0,1-.873.166,2.117,2.117,0,0,1-.848-.156,1.3,1.3,0,0,1-.56-.442,1.273,1.273,0,0,1-.224-.681h.661a.666.666,0,0,0,.154.393.807.807,0,0,0,.347.232,1.377,1.377,0,0,0,.466.076,1.317,1.317,0,0,0,.5-.088.82.82,0,0,0,.344-.247.581.581,0,0,0,.126-.372.46.46,0,0,0-.11-.317.831.831,0,0,0-.3-.2,2.94,2.94,0,0,0-.421-.143l-.516-.141a2,2,0,0,1-.83-.42.941.941,0,0,1-.306-.733,1.089,1.089,0,0,1,.2-.658,1.351,1.351,0,0,1,.554-.438,1.908,1.908,0,0,1,.788-.157A1.863,1.863,0,0,1,12-4.268a1.323,1.323,0,0,1,.536.427,1.085,1.085,0,0,1,.2.623Z" transform="translate(242 325)" fill="#eee"/>
    </g>
  </g>
</svg>
