<svg xmlns="http://www.w3.org/2000/svg" width="67.235" height="99.636" viewBox="0 0 67.235 99.636">
  <path id="Path_22" data-name="Path 22" d="M71.419-75.7,68.013-63.684H4.233L7.638-75.7ZM40.38,0,5.546-42.277l-.1-9.487H22.72a26.836,26.836,0,0,0,10.946-1.995,14.775,14.775,0,0,0,6.811-5.814,17.538,17.538,0,0,0,2.335-9.317q0-8.173-4.865-12.99T22.72-86.7H4.233L7.784-99.636H22.72q12.065,0,19.9,3.843A26.181,26.181,0,0,1,54.294-85.138a31.425,31.425,0,0,1,3.843,15.714,32.047,32.047,0,0,1-3.162,14.352A24.744,24.744,0,0,1,44.9-44.613Q38-40.575,26.758-39.893l-.438.1L58.137-.827V0ZM71.468-99.636,68.013-87.522l-50.986-.292,3.454-11.822Z" transform="translate(-4.233 99.636)" fill="#161d1b"/>
</svg>
